<?xml version="1.0" standalone="no"?><svg xmlns="http://www.w3.org/2000/svg" viewBox="0 0 1440 320"><path fill="#19A7CE" fill-opacity="1" d="M0,128L26.7,122.7C53.3,117,107,107,160,106.7C213.3,107,267,117,320,122.7C373.3,128,427,128,480,117.3C533.3,107,587,85,640,96C693.3,107,747,149,800,181.3C853.3,213,907,235,960,224C1013.3,213,1067,171,1120,170.7C1173.3,171,1227,213,1280,192C1333.3,171,1387,85,1413,42.7L1440,0L1440,0L1413.3,0C1386.7,0,1333,0,1280,0C1226.7,0,1173,0,1120,0C1066.7,0,1013,0,960,0C906.7,0,853,0,800,0C746.7,0,693,0,640,0C586.7,0,533,0,480,0C426.7,0,373,0,320,0C266.7,0,213,0,160,0C106.7,0,53,0,27,0L0,0Z"></path></svg>